<?xml version="1.0" encoding="UTF-8" standalone="no"?>
<!DOCTYPE svg PUBLIC "-//W3C//DTD SVG 1.1//EN"
 "http://www.w3.org/Graphics/SVG/1.1/DTD/svg11.dtd">
<!-- Generated by graphviz version 2.40.1 (20161225.0304)
 -->
<!-- Title: %3 Pages: 1 -->
<svg width="490pt" height="349pt"
 viewBox="0.00 0.00 490.00 349.00" xmlns="http://www.w3.org/2000/svg" xmlns:xlink="http://www.w3.org/1999/xlink">
<g id="graph0" class="graph" transform="scale(1 1) rotate(0) translate(4 345)">
<title>%3</title>
<polygon fill="#ffffff" stroke="transparent" points="-4,4 -4,-345 486,-345 486,4 -4,4"/>
<!-- ATHLETE -->
<g id="node1" class="node">
<title>ATHLETE</title>
<polygon fill="#ffffff" stroke="transparent" points="220,-341 143,-341 143,-180 220,-180 220,-341"/>
<polygon fill="none" stroke="#000000" points="151.5,-319.5 151.5,-336.5 212.5,-336.5 212.5,-319.5 151.5,-319.5"/>
<text text-anchor="start" x="154.5" y="-326.5" font-family="Courier,monospace" font-weight="bold" font-size="10.00" fill="#000000">ATHLETE</text>
<polygon fill="none" stroke="#000000" points="151.5,-302.5 151.5,-319.5 212.5,-319.5 212.5,-302.5 151.5,-302.5"/>
<text text-anchor="start" x="154.5" y="-308.5" font-family="Courier,monospace" font-size="10.00" fill="#000000">_Num_</text>
<polygon fill="none" stroke="#000000" points="151.5,-285.5 151.5,-302.5 212.5,-302.5 212.5,-285.5 151.5,-285.5"/>
<text text-anchor="start" x="154.5" y="-291.5" font-family="Courier,monospace" font-size="10.00" fill="#000000">Name</text>
<polygon fill="none" stroke="#000000" points="151.5,-268.5 151.5,-285.5 212.5,-285.5 212.5,-268.5 151.5,-268.5"/>
<text text-anchor="start" x="154.5" y="-274.5" font-family="Courier,monospace" font-size="10.00" fill="#000000">Sex</text>
<polygon fill="none" stroke="#000000" points="151.5,-251.5 151.5,-268.5 212.5,-268.5 212.5,-251.5 151.5,-251.5"/>
<text text-anchor="start" x="154.5" y="-257.5" font-family="Courier,monospace" font-size="10.00" fill="#000000">BirthDate</text>
<polygon fill="none" stroke="#000000" points="151.5,-234.5 151.5,-251.5 212.5,-251.5 212.5,-234.5 151.5,-234.5"/>
<text text-anchor="start" x="154.5" y="-240.5" font-family="Courier,monospace" font-size="10.00" fill="#000000">Phone ?</text>
<polygon fill="none" stroke="#000000" points="151.5,-217.5 151.5,-234.5 212.5,-234.5 212.5,-217.5 151.5,-217.5"/>
<text text-anchor="start" x="154.5" y="-223.5" font-family="Courier,monospace" font-size="10.00" fill="#000000">Email</text>
<polygon fill="none" stroke="#000000" points="151.5,-200.5 151.5,-217.5 212.5,-217.5 212.5,-200.5 151.5,-200.5"/>
<text text-anchor="start" x="154.5" y="-206.5" font-family="Courier,monospace" font-size="10.00" fill="#000000">Team</text>
<polygon fill="none" stroke="#000000" points="151.5,-183.5 151.5,-200.5 212.5,-200.5 212.5,-183.5 151.5,-183.5"/>
<text text-anchor="start" x="154.5" y="-189.5" font-family="Courier,monospace" font-size="10.00" fill="#000000">JoinDate</text>
</g>
<!-- TEAM -->
<g id="node2" class="node">
<title>TEAM</title>
<polygon fill="#ffffff" stroke="transparent" points="336,-246.5 265,-246.5 265,-136.5 336,-136.5 336,-246.5"/>
<polygon fill="none" stroke="#000000" points="273.5,-225.5 273.5,-242.5 328.5,-242.5 328.5,-225.5 273.5,-225.5"/>
<text text-anchor="start" x="276.5" y="-232.5" font-family="Courier,monospace" font-weight="bold" font-size="10.00" fill="#000000">TEAM</text>
<polygon fill="none" stroke="#000000" points="273.5,-208.5 273.5,-225.5 328.5,-225.5 328.5,-208.5 273.5,-208.5"/>
<text text-anchor="start" x="276.5" y="-214.5" font-family="Courier,monospace" font-size="10.00" fill="#000000">_Num_</text>
<polygon fill="none" stroke="#000000" points="273.5,-191.5 273.5,-208.5 328.5,-208.5 328.5,-191.5 273.5,-191.5"/>
<text text-anchor="start" x="276.5" y="-197.5" font-family="Courier,monospace" font-size="10.00" fill="#000000">Name</text>
<polygon fill="none" stroke="#000000" points="273.5,-174.5 273.5,-191.5 328.5,-191.5 328.5,-174.5 273.5,-174.5"/>
<text text-anchor="start" x="276.5" y="-180.5" font-family="Courier,monospace" font-size="10.00" fill="#000000">Email</text>
<polygon fill="none" stroke="#000000" points="273.5,-157.5 273.5,-174.5 328.5,-174.5 328.5,-157.5 273.5,-157.5"/>
<text text-anchor="start" x="276.5" y="-163.5" font-family="Courier,monospace" font-size="10.00" fill="#000000">Director</text>
<polygon fill="none" stroke="#000000" points="273.5,-140.5 273.5,-157.5 328.5,-157.5 328.5,-140.5 273.5,-140.5"/>
<text text-anchor="start" x="276.5" y="-146.5" font-family="Courier,monospace" font-size="10.00" fill="#000000">Pool</text>
</g>
<!-- ATHLETE&#45;&gt;TEAM -->
<g id="edge1" class="edge">
<title>ATHLETE:Team&#45;&gt;TEAM:_Num_</title>
<path fill="none" stroke="#000000" d="M212.5,-208.5C236.1579,-208.5 244.0061,-215.2073 263.341,-217.0413"/>
<polygon fill="#000000" stroke="#000000" points="263.3523,-220.5453 273.5,-217.5 263.6681,-213.5524 263.3523,-220.5453"/>
</g>
<!-- EMPLOYEE -->
<g id="node4" class="node">
<title>EMPLOYEE</title>
<polygon fill="#ffffff" stroke="transparent" points="470,-328 393,-328 393,-167 470,-167 470,-328"/>
<polygon fill="none" stroke="#000000" points="401.5,-306.5 401.5,-323.5 462.5,-323.5 462.5,-306.5 401.5,-306.5"/>
<text text-anchor="start" x="404.5" y="-313.5" font-family="Courier,monospace" font-weight="bold" font-size="10.00" fill="#000000">EMPLOYEE</text>
<polygon fill="none" stroke="#000000" points="401.5,-289.5 401.5,-306.5 462.5,-306.5 462.5,-289.5 401.5,-289.5"/>
<text text-anchor="start" x="404.5" y="-295.5" font-family="Courier,monospace" font-size="10.00" fill="#000000">_Num_</text>
<polygon fill="none" stroke="#000000" points="401.5,-272.5 401.5,-289.5 462.5,-289.5 462.5,-272.5 401.5,-272.5"/>
<text text-anchor="start" x="404.5" y="-278.5" font-family="Courier,monospace" font-size="10.00" fill="#000000">Name</text>
<polygon fill="none" stroke="#000000" points="401.5,-255.5 401.5,-272.5 462.5,-272.5 462.5,-255.5 401.5,-255.5"/>
<text text-anchor="start" x="404.5" y="-261.5" font-family="Courier,monospace" font-size="10.00" fill="#000000">Sex</text>
<polygon fill="none" stroke="#000000" points="401.5,-238.5 401.5,-255.5 462.5,-255.5 462.5,-238.5 401.5,-238.5"/>
<text text-anchor="start" x="404.5" y="-244.5" font-family="Courier,monospace" font-size="10.00" fill="#000000">BirthDate</text>
<polygon fill="none" stroke="#000000" points="401.5,-221.5 401.5,-238.5 462.5,-238.5 462.5,-221.5 401.5,-221.5"/>
<text text-anchor="start" x="404.5" y="-227.5" font-family="Courier,monospace" font-size="10.00" fill="#000000">Phone ?</text>
<polygon fill="none" stroke="#000000" points="401.5,-204.5 401.5,-221.5 462.5,-221.5 462.5,-204.5 401.5,-204.5"/>
<text text-anchor="start" x="404.5" y="-210.5" font-family="Courier,monospace" font-size="10.00" fill="#000000">Email</text>
<polygon fill="none" stroke="#000000" points="401.5,-187.5 401.5,-204.5 462.5,-204.5 462.5,-187.5 401.5,-187.5"/>
<text text-anchor="start" x="404.5" y="-193.5" font-family="Courier,monospace" font-size="10.00" fill="#000000">Team</text>
<polygon fill="none" stroke="#000000" points="401.5,-170.5 401.5,-187.5 462.5,-187.5 462.5,-170.5 401.5,-170.5"/>
<text text-anchor="start" x="404.5" y="-176.5" font-family="Courier,monospace" font-size="10.00" fill="#000000">JoinDate</text>
</g>
<!-- TEAM&#45;&gt;EMPLOYEE -->
<g id="edge4" class="edge">
<title>TEAM:Director&#45;&gt;EMPLOYEE:_Num_</title>
<path fill="none" stroke="#000000" d="M328.5,-165.5C392.2421,-165.5 340.4495,-284.3509 391.555,-297.3502"/>
<polygon fill="#000000" stroke="#000000" points="391.1642,-300.8282 401.5,-298.5 391.9682,-293.8746 391.1642,-300.8282"/>
</g>
<!-- POOL -->
<g id="node5" class="node">
<title>POOL</title>
<polygon fill="#ffffff" stroke="transparent" points="482,-127 381,-127 381,0 482,0 482,-127"/>
<polygon fill="none" stroke="#000000" points="389.5,-105.5 389.5,-122.5 474.5,-122.5 474.5,-105.5 389.5,-105.5"/>
<text text-anchor="start" x="392.5" y="-112.5" font-family="Courier,monospace" font-weight="bold" font-size="10.00" fill="#000000">POOL</text>
<polygon fill="none" stroke="#000000" points="389.5,-88.5 389.5,-105.5 474.5,-105.5 474.5,-88.5 389.5,-88.5"/>
<text text-anchor="start" x="392.5" y="-94.5" font-family="Courier,monospace" font-size="10.00" fill="#000000">_Num_</text>
<polygon fill="none" stroke="#000000" points="389.5,-71.5 389.5,-88.5 474.5,-88.5 474.5,-71.5 389.5,-71.5"/>
<text text-anchor="start" x="392.5" y="-77.5" font-family="Courier,monospace" font-size="10.00" fill="#000000">Name</text>
<polygon fill="none" stroke="#000000" points="389.5,-54.5 389.5,-71.5 474.5,-71.5 474.5,-54.5 389.5,-54.5"/>
<text text-anchor="start" x="392.5" y="-60.5" font-family="Courier,monospace" font-size="10.00" fill="#000000">AddStreet</text>
<polygon fill="none" stroke="#000000" points="389.5,-37.5 389.5,-54.5 474.5,-54.5 474.5,-37.5 389.5,-37.5"/>
<text text-anchor="start" x="392.5" y="-43.5" font-family="Courier,monospace" font-size="10.00" fill="#000000">AddNum</text>
<polygon fill="none" stroke="#000000" points="389.5,-20.5 389.5,-37.5 474.5,-37.5 474.5,-20.5 389.5,-20.5"/>
<text text-anchor="start" x="392.5" y="-26.5" font-family="Courier,monospace" font-size="10.00" fill="#000000">AddPostalCode</text>
<polygon fill="none" stroke="#000000" points="389.5,-3.5 389.5,-20.5 474.5,-20.5 474.5,-3.5 389.5,-3.5"/>
<text text-anchor="start" x="392.5" y="-9.5" font-family="Courier,monospace" font-size="10.00" fill="#000000">AddTown</text>
</g>
<!-- TEAM&#45;&gt;POOL -->
<g id="edge5" class="edge">
<title>TEAM:Pool&#45;&gt;POOL:_Num_</title>
<path fill="none" stroke="#000000" d="M328.5,-148.5C359.9731,-148.5 355.74,-108.0461 379.4024,-99.1969"/>
<polygon fill="#000000" stroke="#000000" points="380.2183,-102.6089 389.5,-97.5 379.0582,-95.7057 380.2183,-102.6089"/>
</g>
<!-- PERSONAL_BEST -->
<g id="node3" class="node">
<title>PERSONAL_BEST</title>
<polygon fill="#ffffff" stroke="transparent" points="107,-340.5 0,-340.5 0,-196.5 107,-196.5 107,-340.5"/>
<polygon fill="none" stroke="#000000" points="8.5,-319.5 8.5,-336.5 99.5,-336.5 99.5,-319.5 8.5,-319.5"/>
<text text-anchor="start" x="11.5" y="-326.5" font-family="Courier,monospace" font-weight="bold" font-size="10.00" fill="#000000">PERSONAL_BEST</text>
<polygon fill="none" stroke="#000000" points="8.5,-302.5 8.5,-319.5 99.5,-319.5 99.5,-302.5 8.5,-302.5"/>
<text text-anchor="start" x="11.5" y="-308.5" font-family="Courier,monospace" font-size="10.00" fill="#000000">_Athlete_Num_</text>
<polygon fill="none" stroke="#000000" points="8.5,-285.5 8.5,-302.5 99.5,-302.5 99.5,-285.5 8.5,-285.5"/>
<text text-anchor="start" x="11.5" y="-291.5" font-family="Courier,monospace" font-size="10.00" fill="#000000">_Race_</text>
<polygon fill="none" stroke="#000000" points="8.5,-268.5 8.5,-285.5 99.5,-285.5 99.5,-268.5 8.5,-268.5"/>
<text text-anchor="start" x="11.5" y="-274.5" font-family="Courier,monospace" font-size="10.00" fill="#000000">_PoolDistance_</text>
<polygon fill="none" stroke="#000000" points="8.5,-251.5 8.5,-268.5 99.5,-268.5 99.5,-251.5 8.5,-251.5"/>
<text text-anchor="start" x="11.5" y="-257.5" font-family="Courier,monospace" font-size="10.00" fill="#000000">_RaceTime_</text>
<polygon fill="none" stroke="#000000" points="8.5,-234.5 8.5,-251.5 99.5,-251.5 99.5,-234.5 8.5,-234.5"/>
<text text-anchor="start" x="11.5" y="-240.5" font-family="Courier,monospace" font-size="10.00" fill="#000000">_RaceDate_</text>
<polygon fill="none" stroke="#000000" points="8.5,-217.5 8.5,-234.5 99.5,-234.5 99.5,-217.5 8.5,-217.5"/>
<text text-anchor="start" x="11.5" y="-223.5" font-family="Courier,monospace" font-size="10.00" fill="#000000">_City_</text>
<polygon fill="none" stroke="#000000" points="8.5,-200.5 8.5,-217.5 99.5,-217.5 99.5,-200.5 8.5,-200.5"/>
<text text-anchor="start" x="11.5" y="-206.5" font-family="Courier,monospace" font-size="10.00" fill="#000000">_Competition_</text>
</g>
<!-- PERSONAL_BEST&#45;&gt;ATHLETE -->
<g id="edge2" class="edge">
<title>PERSONAL_BEST:_Athlete_Num_&#45;&gt;ATHLETE:_Num_</title>
<path fill="none" stroke="#000000" d="M99.5,-311.5C118.8194,-311.5 126.0265,-311.5 141.3716,-311.5"/>
<polygon fill="#000000" stroke="#000000" points="141.5,-315.0001 151.5,-311.5 141.5,-308.0001 141.5,-315.0001"/>
</g>
<!-- EMPLOYEE&#45;&gt;TEAM -->
<g id="edge3" class="edge">
<title>EMPLOYEE:Team&#45;&gt;TEAM:_Num_</title>
<path fill="none" stroke="#000000" d="M401.5,-195.5C371.3205,-195.5 363.8723,-212.9507 338.6653,-216.768"/>
<polygon fill="#000000" stroke="#000000" points="338.2228,-213.2907 328.5,-217.5 338.7256,-220.2727 338.2228,-213.2907"/>
</g>
<!-- COMPETITION -->
<g id="node6" class="node">
<title>COMPETITION</title>
<polygon fill="#ffffff" stroke="transparent" points="345,-118 256,-118 256,-25 345,-25 345,-118"/>
<polygon fill="none" stroke="#000000" points="264.5,-96.5 264.5,-113.5 337.5,-113.5 337.5,-96.5 264.5,-96.5"/>
<text text-anchor="start" x="267.5" y="-103.5" font-family="Courier,monospace" font-weight="bold" font-size="10.00" fill="#000000">COMPETITION</text>
<polygon fill="none" stroke="#000000" points="264.5,-79.5 264.5,-96.5 337.5,-96.5 337.5,-79.5 264.5,-79.5"/>
<text text-anchor="start" x="267.5" y="-85.5" font-family="Courier,monospace" font-size="10.00" fill="#000000">_Num_</text>
<polygon fill="none" stroke="#000000" points="264.5,-62.5 264.5,-79.5 337.5,-79.5 337.5,-62.5 264.5,-62.5"/>
<text text-anchor="start" x="267.5" y="-68.5" font-family="Courier,monospace" font-size="10.00" fill="#000000">Name</text>
<polygon fill="none" stroke="#000000" points="264.5,-45.5 264.5,-62.5 337.5,-62.5 337.5,-45.5 264.5,-45.5"/>
<text text-anchor="start" x="267.5" y="-51.5" font-family="Courier,monospace" font-size="10.00" fill="#000000">Pool_Num</text>
<polygon fill="none" stroke="#000000" points="264.5,-28.5 264.5,-45.5 337.5,-45.5 337.5,-28.5 264.5,-28.5"/>
<text text-anchor="start" x="267.5" y="-34.5" font-family="Courier,monospace" font-size="10.00" fill="#000000">CompDate</text>
</g>
<!-- COMPETITION&#45;&gt;POOL -->
<g id="edge6" class="edge">
<title>COMPETITION:Pool_Num&#45;&gt;POOL:_Num_</title>
<path fill="none" stroke="#000000" d="M337.5,-53.5C363.7536,-53.5 360.8115,-86.5886 379.3101,-95.3778"/>
<polygon fill="#000000" stroke="#000000" points="378.9964,-98.8875 389.5,-97.5 380.4237,-92.0345 378.9964,-98.8875"/>
</g>
<!-- RAN_IN -->
<g id="node7" class="node">
<title>RAN_IN</title>
<polygon fill="#ffffff" stroke="transparent" points="98,-161 9,-161 9,-68 98,-68 98,-161"/>
<polygon fill="none" stroke="#000000" points="17.5,-139.5 17.5,-156.5 90.5,-156.5 90.5,-139.5 17.5,-139.5"/>
<text text-anchor="start" x="20.5" y="-146.5" font-family="Courier,monospace" font-weight="bold" font-size="10.00" fill="#000000">RAN_IN</text>
<polygon fill="none" stroke="#000000" points="17.5,-122.5 17.5,-139.5 90.5,-139.5 90.5,-122.5 17.5,-122.5"/>
<text text-anchor="start" x="20.5" y="-128.5" font-family="Courier,monospace" font-size="10.00" fill="#000000">_Comp_Num_</text>
<polygon fill="none" stroke="#000000" points="17.5,-105.5 17.5,-122.5 90.5,-122.5 90.5,-105.5 17.5,-105.5"/>
<text text-anchor="start" x="20.5" y="-111.5" font-family="Courier,monospace" font-size="10.00" fill="#000000">Athlete_Num</text>
<polygon fill="none" stroke="#000000" points="17.5,-88.5 17.5,-105.5 90.5,-105.5 90.5,-88.5 17.5,-88.5"/>
<text text-anchor="start" x="20.5" y="-94.5" font-family="Courier,monospace" font-size="10.00" fill="#000000">CompDate</text>
<polygon fill="none" stroke="#000000" points="17.5,-71.5 17.5,-88.5 90.5,-88.5 90.5,-71.5 17.5,-71.5"/>
<text text-anchor="start" x="20.5" y="-77.5" font-family="Courier,monospace" font-size="10.00" fill="#000000">PoolName</text>
</g>
<!-- RAN_IN&#45;&gt;ATHLETE -->
<g id="edge8" class="edge">
<title>RAN_IN:Athlete_Num&#45;&gt;ATHLETE:_Num_</title>
<path fill="none" stroke="#000000" d="M90.5,-113.5C178.8048,-113.5 69.1596,-295.5909 141.2263,-310.528"/>
<polygon fill="#000000" stroke="#000000" points="141.2148,-314.0425 151.5,-311.5 141.8741,-307.0736 141.2148,-314.0425"/>
</g>
<!-- RAN_IN&#45;&gt;COMPETITION -->
<g id="edge7" class="edge">
<title>RAN_IN:_Comp_Num_&#45;&gt;COMPETITION:_Num_</title>
<path fill="none" stroke="#000000" d="M90.5,-131.5C166.5813,-131.5 183.3902,-92.2765 254.1462,-88.7525"/>
<polygon fill="#000000" stroke="#000000" points="254.5883,-92.2429 264.5,-88.5 254.4176,-85.245 254.5883,-92.2429"/>
</g>
</g>
</svg>
