<?xml version="1.0" encoding="UTF-8" standalone="no"?>
<!DOCTYPE svg PUBLIC "-//W3C//DTD SVG 1.1//EN"
 "http://www.w3.org/Graphics/SVG/1.1/DTD/svg11.dtd">
<!-- Generated by graphviz version 2.40.1 (20161225.0304)
 -->
<!-- Title: %3 Pages: 1 -->
<svg width="690pt" height="314pt"
 viewBox="0.00 0.00 689.89 314.00" xmlns="http://www.w3.org/2000/svg" xmlns:xlink="http://www.w3.org/1999/xlink">
<g id="graph0" class="graph" transform="scale(1 1) rotate(0) translate(4 310)">
<title>%3</title>
<polygon fill="#ffffff" stroke="transparent" points="-4,4 -4,-310 685.8944,-310 685.8944,4 -4,4"/>
<!-- ATHLETE -->
<g id="node1" class="node">
<title>ATHLETE</title>
<polygon fill="#ffffff" stroke="#000000" points="67.7631,-198 8.7631,-198 8.7631,-162 67.7631,-162 67.7631,-198"/>
<text text-anchor="middle" x="38.2631" y="-177.5" font-family="Courier,monospace" font-size="10.00" fill="#000000">ATHLETE</text>
</g>
<!-- SWIMS_IN -->
<g id="node6" class="node">
<title>SWIMS_IN</title>
<polygon fill="#ffffff" stroke="#000000" points="188.6233,-169 134.3987,-151 188.6233,-133 242.8479,-151 188.6233,-169"/>
<text text-anchor="middle" x="188.6233" y="-148.5" font-family="Courier,monospace" font-size="10.00" fill="#000000">SWIMS_IN</text>
</g>
<!-- ATHLETE&#45;&#45;SWIMS_IN -->
<g id="edge1" class="edge">
<title>ATHLETE&#45;&#45;SWIMS_IN</title>
<path fill="none" stroke="#000000" d="M67.9694,-174.2705C92.7891,-169.4836 128.2004,-162.6538 154.2425,-157.631"/>
<text text-anchor="middle" x="98.0262" y="-171" font-family="Courier,monospace" font-size="10.00" fill="#000000">N</text>
</g>
<!-- RAN_IN -->
<g id="node13" class="node">
<title>RAN_IN</title>
<polygon fill="#ffffff" stroke="#000000" points="188.6233,-225 144.3785,-207 188.6233,-189 232.8681,-207 188.6233,-225"/>
<text text-anchor="middle" x="188.6233" y="-204.5" font-family="Courier,monospace" font-size="10.00" fill="#000000">RAN_IN</text>
</g>
<!-- ATHLETE&#45;&#45;RAN_IN -->
<g id="edge12" class="edge">
<title>ATHLETE&#45;&#45;RAN_IN</title>
<path fill="none" stroke="#000000" d="M68.3229,-183.3658C94.2552,-188.0224 131.75,-194.7553 158.0399,-199.4762"/>
<path fill="none" stroke="transparent" d="M67.9694,-185.3343C93.9017,-189.991 131.3965,-196.7239 157.6864,-201.4447"/>
<path fill="none" stroke="#000000" d="M67.6159,-187.3028C93.5482,-191.9595 131.043,-198.6924 157.3329,-203.4132"/>
<text text-anchor="middle" x="98.0262" y="-194" font-family="Courier,monospace" font-size="10.00" fill="#000000">1</text>
</g>
<!-- EMPLOYEE -->
<g id="node2" class="node">
<title>EMPLOYEE</title>
<polygon fill="#ffffff" stroke="#000000" points="70.7631,-90 5.7631,-90 5.7631,-54 70.7631,-54 70.7631,-90"/>
<text text-anchor="middle" x="38.2631" y="-69.5" font-family="Courier,monospace" font-size="10.00" fill="#000000">EMPLOYEE</text>
</g>
<!-- WORS_FOR -->
<g id="node8" class="node">
<title>WORS_FOR</title>
<polygon fill="#ffffff" stroke="#000000" points="188.6233,-61 134.3987,-43 188.6233,-25 242.8479,-43 188.6233,-61"/>
<text text-anchor="middle" x="188.6233" y="-40.5" font-family="Courier,monospace" font-size="10.00" fill="#000000">WORS_FOR</text>
</g>
<!-- EMPLOYEE&#45;&#45;WORS_FOR -->
<g id="edge4" class="edge">
<title>EMPLOYEE&#45;&#45;WORS_FOR</title>
<path fill="none" stroke="#000000" d="M70.5103,-63.7436C95.1261,-58.996 128.8174,-52.4979 153.8534,-47.6692"/>
<path fill="none" stroke="transparent" d="M70.889,-65.7074C95.5049,-60.9598 129.1962,-54.4617 154.2322,-49.633"/>
<path fill="none" stroke="#000000" d="M71.2678,-67.6712C95.8836,-62.9236 129.5749,-56.4255 154.611,-51.5968"/>
<text text-anchor="middle" x="98.0262" y="-63" font-family="Courier,monospace" font-size="10.00" fill="#000000">N</text>
</g>
<!-- DIRECTOR_OF -->
<g id="node10" class="node">
<title>DIRECTOR_OF</title>
<polygon fill="#ffffff" stroke="#000000" points="188.6233,-115 119.429,-97 188.6233,-79 257.8176,-97 188.6233,-115"/>
<text text-anchor="middle" x="188.6233" y="-94.5" font-family="Courier,monospace" font-size="10.00" fill="#000000">DIRECTOR_OF</text>
</g>
<!-- EMPLOYEE&#45;&#45;DIRECTOR_OF -->
<g id="edge7" class="edge">
<title>EMPLOYEE&#45;&#45;DIRECTOR_OF</title>
<path fill="none" stroke="#000000" d="M70.889,-77.4246C93.0001,-81.101 122.4336,-85.9948 146.3394,-89.9696"/>
<text text-anchor="middle" x="98.0262" y="-85" font-family="Courier,monospace" font-size="10.00" fill="#000000">1</text>
</g>
<!-- TEAM -->
<g id="node3" class="node">
<title>TEAM</title>
<polygon fill="#ffffff" stroke="#000000" points="369.2204,-132 315.2204,-132 315.2204,-96 369.2204,-96 369.2204,-132"/>
<text text-anchor="middle" x="342.2204" y="-111.5" font-family="Courier,monospace" font-size="10.00" fill="#000000">TEAM</text>
</g>
<!-- TEAM_HOUSE_IN -->
<g id="node16" class="node">
<title>TEAM_HOUSE_IN</title>
<polygon fill="#ffffff" stroke="#000000" points="505.8074,-135 426.6332,-117 505.8074,-99 584.9816,-117 505.8074,-135"/>
<text text-anchor="middle" x="505.8074" y="-114.5" font-family="Courier,monospace" font-size="10.00" fill="#000000">TEAM_HOUSE_IN</text>
</g>
<!-- TEAM&#45;&#45;TEAM_HOUSE_IN -->
<g id="edge16" class="edge">
<title>TEAM&#45;&#45;TEAM_HOUSE_IN</title>
<path fill="none" stroke="#000000" d="M369.2334,-114.4954C386.5664,-114.8133 409.9736,-115.2425 432.5108,-115.6558"/>
<text text-anchor="middle" x="405.2204" y="-118" font-family="Courier,monospace" font-size="10.00" fill="#000000">M</text>
</g>
<!-- POOL -->
<g id="node4" class="node">
<title>POOL</title>
<polygon fill="#ffffff" stroke="#000000" points="681.8944,-162 627.8944,-162 627.8944,-126 681.8944,-126 681.8944,-162"/>
<text text-anchor="middle" x="654.8944" y="-141.5" font-family="Courier,monospace" font-size="10.00" fill="#000000">POOL</text>
</g>
<!-- COMPETITION -->
<g id="node5" class="node">
<title>COMPETITION</title>
<polygon fill="#ffffff" stroke="#000000" points="383.7204,-189 300.7204,-189 300.7204,-153 383.7204,-153 383.7204,-189"/>
<text text-anchor="middle" x="342.2204" y="-168.5" font-family="Courier,monospace" font-size="10.00" fill="#000000">COMPETITION</text>
</g>
<!-- HAD_PLACE_IN -->
<g id="node11" class="node">
<title>HAD_PLACE_IN</title>
<polygon fill="#ffffff" stroke="#000000" points="505.8074,-189 431.6232,-171 505.8074,-153 579.9917,-171 505.8074,-189"/>
<text text-anchor="middle" x="505.8074" y="-168.5" font-family="Courier,monospace" font-size="10.00" fill="#000000">HAD_PLACE_IN</text>
</g>
<!-- COMPETITION&#45;&#45;HAD_PLACE_IN -->
<g id="edge9" class="edge">
<title>COMPETITION&#45;&#45;HAD_PLACE_IN</title>
<path fill="none" stroke="#000000" d="M383.9236,-169C398.4068,-169 415.118,-169 431.4324,-169"/>
<path fill="none" stroke="transparent" d="M383.9236,-171C398.4068,-171 415.118,-171 431.4324,-171"/>
<path fill="none" stroke="#000000" d="M383.9236,-173C398.4068,-173 415.118,-173 431.4324,-173"/>
<text text-anchor="middle" x="405.2204" y="-174" font-family="Courier,monospace" font-size="10.00" fill="#000000">1</text>
</g>
<!-- SWIMS_IN&#45;&#45;TEAM -->
<g id="edge2" class="edge">
<title>SWIMS_IN&#45;&#45;TEAM</title>
<path fill="none" stroke="#000000" d="M219.6082,-141.4788C247.606,-134.7345 288.1306,-124.9725 314.704,-118.5712"/>
<path fill="none" stroke="transparent" d="M220.0766,-143.4232C248.0743,-136.6788 288.599,-126.9169 315.1724,-120.5156"/>
<path fill="none" stroke="#000000" d="M220.545,-145.3676C248.5427,-138.6232 289.0673,-128.8612 315.6408,-122.46"/>
<text text-anchor="middle" x="279.2204" y="-132" font-family="Courier,monospace" font-size="10.00" fill="#000000">1</text>
</g>
<!-- SWIMS_IN_JoinDate -->
<g id="node7" class="node">
<title>SWIMS_IN_JoinDate</title>
<ellipse fill="#ffffff" stroke="#000000" cx="38.2631" cy="-126" rx="38.0276" ry="18"/>
<text text-anchor="middle" x="38.2631" y="-123.5" font-family="Courier,monospace" font-size="10.00" fill="#000000">JoinDate</text>
</g>
<!-- SWIMS_IN_JoinDate&#45;&#45;SWIMS_IN -->
<g id="edge3" class="edge">
<title>SWIMS_IN_JoinDate&#45;&#45;SWIMS_IN</title>
<path fill="none" stroke="#000000" d="M74.6611,-132.0518C98.2146,-135.968 128.7616,-141.0469 152.3002,-144.9607"/>
</g>
<!-- WORS_FOR&#45;&#45;TEAM -->
<g id="edge5" class="edge">
<title>WORS_FOR&#45;&#45;TEAM</title>
<path fill="none" stroke="#000000" d="M215.5246,-50.6047C228.5882,-55.5224 244.4998,-61.8022 258.5474,-68.179 278.2228,-77.1177 299.7073,-88.3253 316.1402,-97.2181"/>
<path fill="none" stroke="transparent" d="M214.82,-52.4765C227.8539,-57.3828 243.7656,-63.6625 257.7204,-70 277.2978,-78.891 298.7822,-90.0985 315.1884,-98.9771"/>
<path fill="none" stroke="#000000" d="M214.1154,-54.3483C227.1197,-59.2431 243.0314,-65.5229 256.8934,-71.821 276.3728,-80.6642 297.8572,-91.8717 314.2365,-100.736"/>
<text text-anchor="middle" x="279.2204" y="-84" font-family="Courier,monospace" font-size="10.00" fill="#000000">1</text>
</g>
<!-- WORS_FOR_JoinDate -->
<g id="node9" class="node">
<title>WORS_FOR_JoinDate</title>
<ellipse fill="#ffffff" stroke="#000000" cx="38.2631" cy="-18" rx="38.0276" ry="18"/>
<text text-anchor="middle" x="38.2631" y="-15.5" font-family="Courier,monospace" font-size="10.00" fill="#000000">JoinDate</text>
</g>
<!-- WORS_FOR_JoinDate&#45;&#45;WORS_FOR -->
<g id="edge6" class="edge">
<title>WORS_FOR_JoinDate&#45;&#45;WORS_FOR</title>
<path fill="none" stroke="#000000" d="M74.6611,-24.0518C98.2146,-27.968 128.7616,-33.0469 152.3002,-36.9607"/>
</g>
<!-- DIRECTOR_OF&#45;&#45;TEAM -->
<g id="edge8" class="edge">
<title>DIRECTOR_OF&#45;&#45;TEAM</title>
<path fill="none" stroke="#000000" d="M237.4424,-100.391C263.106,-103.2315 293.6483,-106.6119 315.1573,-108.9925"/>
<path fill="none" stroke="transparent" d="M237.2224,-102.3789C262.8859,-105.2193 293.4283,-108.5997 314.9373,-110.9803"/>
<path fill="none" stroke="#000000" d="M237.0023,-104.3668C262.6659,-107.2072 293.2083,-110.5876 314.7173,-112.9682"/>
<text text-anchor="middle" x="279.2204" y="-110" font-family="Courier,monospace" font-size="10.00" fill="#000000">1</text>
</g>
<!-- HAD_PLACE_IN&#45;&#45;POOL -->
<g id="edge10" class="edge">
<title>HAD_PLACE_IN&#45;&#45;POOL</title>
<path fill="none" stroke="#000000" d="M548.5298,-163.2629C573.999,-158.6503 605.5696,-152.9328 627.6742,-148.9296"/>
<text text-anchor="middle" x="606.3944" y="-155" font-family="Courier,monospace" font-size="10.00" fill="#000000">1</text>
</g>
<!-- HAD_PLACE_IN_Date -->
<g id="node12" class="node">
<title>HAD_PLACE_IN_Date</title>
<ellipse fill="#ffffff" stroke="#000000" cx="342.2204" cy="-225" rx="27" ry="18"/>
<text text-anchor="middle" x="342.2204" y="-222.5" font-family="Courier,monospace" font-size="10.00" fill="#000000">Date</text>
</g>
<!-- HAD_PLACE_IN_Date&#45;&#45;HAD_PLACE_IN -->
<g id="edge11" class="edge">
<title>HAD_PLACE_IN_Date&#45;&#45;HAD_PLACE_IN</title>
<path fill="none" stroke="#000000" d="M366.711,-216.9157C395.3222,-207.4711 442.7323,-191.8211 474.123,-181.459"/>
</g>
<!-- RAN_IN&#45;&#45;COMPETITION -->
<g id="edge13" class="edge">
<title>RAN_IN&#45;&#45;COMPETITION</title>
<path fill="none" stroke="#000000" d="M216.7954,-200.397C240.2655,-194.8961 274.0288,-186.9827 300.6137,-180.7518"/>
<text text-anchor="middle" x="279.2204" y="-188" font-family="Courier,monospace" font-size="10.00" fill="#000000">1</text>
</g>
<!-- RAN_IN_Date -->
<g id="node14" class="node">
<title>RAN_IN_Date</title>
<ellipse fill="#ffffff" stroke="#000000" cx="38.2631" cy="-288" rx="27" ry="18"/>
<text text-anchor="middle" x="38.2631" y="-285.5" font-family="Courier,monospace" font-size="10.00" fill="#000000">Date</text>
</g>
<!-- RAN_IN_Date&#45;&#45;RAN_IN -->
<g id="edge14" class="edge">
<title>RAN_IN_Date&#45;&#45;RAN_IN</title>
<path fill="none" stroke="#000000" d="M59.4871,-276.5665C88.7914,-260.7801 141.2119,-232.5408 169.4118,-217.3494"/>
</g>
<!-- RAN_IN_Pool -->
<g id="node15" class="node">
<title>RAN_IN_Pool</title>
<ellipse fill="#ffffff" stroke="#000000" cx="38.2631" cy="-234" rx="27" ry="18"/>
<text text-anchor="middle" x="38.2631" y="-231.5" font-family="Courier,monospace" font-size="10.00" fill="#000000">Pool</text>
</g>
<!-- RAN_IN_Pool&#45;&#45;RAN_IN -->
<g id="edge15" class="edge">
<title>RAN_IN_Pool&#45;&#45;RAN_IN</title>
<path fill="none" stroke="#000000" d="M64.4538,-229.297C90.4528,-224.6284 130.2966,-217.4737 157.8044,-212.5341"/>
</g>
<!-- TEAM_HOUSE_IN&#45;&#45;POOL -->
<g id="edge17" class="edge">
<title>TEAM_HOUSE_IN&#45;&#45;POOL</title>
<path fill="none" stroke="#000000" d="M550.4912,-123.0598C575.7263,-127.6299 606.5225,-133.2072 628.1726,-137.1281"/>
<path fill="none" stroke="transparent" d="M550.1348,-125.0278C575.3699,-129.5979 606.1661,-135.1752 627.8162,-139.0961"/>
<path fill="none" stroke="#000000" d="M549.7784,-126.9958C575.0135,-131.5659 605.8097,-137.1432 627.4598,-141.0641"/>
<text text-anchor="middle" x="606.3944" y="-138" font-family="Courier,monospace" font-size="10.00" fill="#000000">N</text>
</g>
</g>
</svg>
