<?xml version="1.0" encoding="UTF-8" standalone="no"?>
<!DOCTYPE svg PUBLIC "-//W3C//DTD SVG 1.1//EN"
 "http://www.w3.org/Graphics/SVG/1.1/DTD/svg11.dtd">
<!-- Generated by graphviz version 2.40.1 (20161225.0304)
 -->
<!-- Title: %3 Pages: 1 -->
<svg width="364pt" height="1290pt"
 viewBox="0.00 0.00 363.63 1290.00" xmlns="http://www.w3.org/2000/svg" xmlns:xlink="http://www.w3.org/1999/xlink">
<g id="graph0" class="graph" transform="scale(1 1) rotate(0) translate(4 1286)">
<title>%3</title>
<polygon fill="#ffffff" stroke="transparent" points="-4,4 -4,-1286 359.628,-1286 359.628,4 -4,4"/>
<!-- ATHLETE -->
<g id="node1" class="node">
<title>ATHLETE</title>
<polygon fill="#ffffff" stroke="#000000" points="355.628,-337 296.628,-337 296.628,-301 355.628,-301 355.628,-337"/>
<text text-anchor="middle" x="326.128" y="-316.5" font-family="Courier,monospace" font-size="10.00" fill="#000000">ATHLETE</text>
</g>
<!-- ATHLETE__Num_ -->
<g id="node2" class="node">
<title>ATHLETE__Num_</title>
<ellipse fill="#ffffff" stroke="#000000" cx="204.237" cy="-481" rx="27.8353" ry="18"/>
<text text-anchor="middle" x="204.237" y="-478.5" font-family="Courier,monospace" font-size="10.00" fill="#000000">_Num_</text>
</g>
<!-- ATHLETE__Num_&#45;&#45;ATHLETE -->
<g id="edge1" class="edge">
<title>ATHLETE__Num_&#45;&#45;ATHLETE</title>
<path fill="none" stroke="#000000" d="M229.2264,-473.2354C239.9263,-468.9249 251.9325,-462.6505 260.628,-454 294.6093,-420.1942 313.5799,-365.2431 321.5628,-337.0071"/>
</g>
<!-- ATHLETE_Name -->
<g id="node3" class="node">
<title>ATHLETE_Name</title>
<ellipse fill="#ffffff" stroke="#000000" cx="204.237" cy="-427" rx="27" ry="18"/>
<text text-anchor="middle" x="204.237" y="-424.5" font-family="Courier,monospace" font-size="10.00" fill="#000000">Name</text>
</g>
<!-- ATHLETE_Name&#45;&#45;ATHLETE -->
<g id="edge2" class="edge">
<title>ATHLETE_Name&#45;&#45;ATHLETE</title>
<path fill="none" stroke="#000000" d="M228.0779,-418.3748C238.6743,-413.8645 250.9187,-407.6713 260.628,-400 283.3323,-382.0612 303.2422,-354.9053 314.9818,-337.061"/>
</g>
<!-- ATHLETE_Sex -->
<g id="node4" class="node">
<title>ATHLETE_Sex</title>
<ellipse fill="#ffffff" stroke="#000000" cx="204.237" cy="-373" rx="27" ry="18"/>
<text text-anchor="middle" x="204.237" y="-370.5" font-family="Courier,monospace" font-size="10.00" fill="#000000">Sex</text>
</g>
<!-- ATHLETE_Sex&#45;&#45;ATHLETE -->
<g id="edge3" class="edge">
<title>ATHLETE_Sex&#45;&#45;ATHLETE</title>
<path fill="none" stroke="#000000" d="M226.8781,-362.9696C246.4308,-354.3073 274.8292,-341.7263 296.2442,-332.2391"/>
</g>
<!-- ATHLETE_BirthDate -->
<g id="node5" class="node">
<title>ATHLETE_BirthDate</title>
<ellipse fill="#ffffff" stroke="#000000" cx="204.237" cy="-319" rx="41.5911" ry="18"/>
<text text-anchor="middle" x="204.237" y="-316.5" font-family="Courier,monospace" font-size="10.00" fill="#000000">BirthDate</text>
</g>
<!-- ATHLETE_BirthDate&#45;&#45;ATHLETE -->
<g id="edge4" class="edge">
<title>ATHLETE_BirthDate&#45;&#45;ATHLETE</title>
<path fill="none" stroke="#000000" d="M246.1849,-319C262.7125,-319 281.311,-319 296.4075,-319"/>
</g>
<!-- ATHLETE_Phone -->
<g id="node6" class="node">
<title>ATHLETE_Phone</title>
<ellipse fill="#ffffff" stroke="#000000" cx="204.237" cy="-265" rx="34.9638" ry="18"/>
<text text-anchor="middle" x="204.237" y="-262.5" font-family="Courier,monospace" font-size="10.00" fill="#000000">Phone ?</text>
</g>
<!-- ATHLETE_Phone&#45;&#45;ATHLETE -->
<g id="edge5" class="edge">
<title>ATHLETE_Phone&#45;&#45;ATHLETE</title>
<path fill="none" stroke="#000000" d="M230.6855,-276.7172C250.0104,-285.2785 276.2351,-296.8965 296.3052,-305.788"/>
</g>
<!-- ATHLETE_Email -->
<g id="node7" class="node">
<title>ATHLETE_Email</title>
<ellipse fill="#ffffff" stroke="#000000" cx="204.237" cy="-211" rx="27.8353" ry="18"/>
<text text-anchor="middle" x="204.237" y="-208.5" font-family="Courier,monospace" font-size="10.00" fill="#000000">Email</text>
</g>
<!-- ATHLETE_Email&#45;&#45;ATHLETE -->
<g id="edge6" class="edge">
<title>ATHLETE_Email&#45;&#45;ATHLETE</title>
<path fill="none" stroke="#000000" d="M228.6371,-219.8641C239.1031,-224.3533 251.0891,-230.4633 260.628,-238 283.3323,-255.9388 303.2422,-283.0947 314.9818,-300.939"/>
</g>
<!-- ATHLETE_PersonalBest -->
<g id="node8" class="node">
<title>ATHLETE_PersonalBest</title>
<ellipse fill="#ffffff" stroke="#000000" cx="204.237" cy="-153" rx="52.2899" ry="18"/>
<ellipse fill="none" stroke="#000000" cx="204.237" cy="-153" rx="56.2822" ry="22"/>
<text text-anchor="middle" x="204.237" y="-150.5" font-family="Courier,monospace" font-size="10.00" fill="#000000">PersonalBest</text>
</g>
<!-- ATHLETE_PersonalBest&#45;&#45;ATHLETE -->
<g id="edge7" class="edge">
<title>ATHLETE_PersonalBest&#45;&#45;ATHLETE</title>
<path fill="none" stroke="#000000" d="M242.0459,-169.5131C248.7733,-173.5845 255.3177,-178.4122 260.628,-184 293.4685,-218.5566 312.8279,-272.6933 321.1985,-300.7582"/>
</g>
<!-- ATHLETE_PersonalBest_Race -->
<g id="node9" class="node">
<title>ATHLETE_PersonalBest_Race</title>
<ellipse fill="#ffffff" stroke="#000000" cx="55.923" cy="-288" rx="27" ry="18"/>
<text text-anchor="middle" x="55.923" y="-285.5" font-family="Courier,monospace" font-size="10.00" fill="#000000">Race</text>
</g>
<!-- ATHLETE_PersonalBest_Race&#45;&#45;ATHLETE_PersonalBest -->
<g id="edge8" class="edge">
<title>ATHLETE_PersonalBest_Race&#45;&#45;ATHLETE_PersonalBest</title>
<path fill="none" stroke="#000000" d="M80.4819,-280.3657C91.1752,-276.0554 103.2095,-269.7447 111.846,-261 138.3919,-234.1212 122.0193,-211.5707 147.846,-184 153.1159,-178.3742 159.6417,-173.5289 166.3635,-169.4522"/>
</g>
<!-- ATHLETE_PersonalBest_PoolDistance -->
<g id="node10" class="node">
<title>ATHLETE_PersonalBest_PoolDistance</title>
<ellipse fill="#ffffff" stroke="#000000" cx="55.923" cy="-234" rx="52.2822" ry="18"/>
<text text-anchor="middle" x="55.923" y="-231.5" font-family="Courier,monospace" font-size="10.00" fill="#000000">PoolDistance</text>
</g>
<!-- ATHLETE_PersonalBest_PoolDistance&#45;&#45;ATHLETE_PersonalBest -->
<g id="edge9" class="edge">
<title>ATHLETE_PersonalBest_PoolDistance&#45;&#45;ATHLETE_PersonalBest</title>
<path fill="none" stroke="#000000" d="M87.6103,-219.5083C95.615,-215.6282 104.1268,-211.3093 111.846,-207 128.4242,-197.745 131.5179,-193.6897 147.846,-184 155.2438,-179.6099 163.293,-175.0561 170.9325,-170.8344"/>
</g>
<!-- ATHLETE_PersonalBest_RaceTime -->
<g id="node11" class="node">
<title>ATHLETE_PersonalBest_RaceTime</title>
<ellipse fill="#ffffff" stroke="#000000" cx="55.923" cy="-180" rx="38.0276" ry="18"/>
<text text-anchor="middle" x="55.923" y="-177.5" font-family="Courier,monospace" font-size="10.00" fill="#000000">RaceTime</text>
</g>
<!-- ATHLETE_PersonalBest_RaceTime&#45;&#45;ATHLETE_PersonalBest -->
<g id="edge10" class="edge">
<title>ATHLETE_PersonalBest_RaceTime&#45;&#45;ATHLETE_PersonalBest</title>
<path fill="none" stroke="#000000" d="M91.8257,-173.4641C110.172,-170.1242 132.8199,-166.0012 152.9685,-162.3332"/>
</g>
<!-- ATHLETE_PersonalBest_RaceDate -->
<g id="node12" class="node">
<title>ATHLETE_PersonalBest_RaceDate</title>
<ellipse fill="#ffffff" stroke="#000000" cx="55.923" cy="-126" rx="38.0276" ry="18"/>
<text text-anchor="middle" x="55.923" y="-123.5" font-family="Courier,monospace" font-size="10.00" fill="#000000">RaceDate</text>
</g>
<!-- ATHLETE_PersonalBest_RaceDate&#45;&#45;ATHLETE_PersonalBest -->
<g id="edge11" class="edge">
<title>ATHLETE_PersonalBest_RaceDate&#45;&#45;ATHLETE_PersonalBest</title>
<path fill="none" stroke="#000000" d="M91.8257,-132.5359C110.172,-135.8758 132.8199,-139.9988 152.9685,-143.6668"/>
</g>
<!-- ATHLETE_PersonalBest_City -->
<g id="node13" class="node">
<title>ATHLETE_PersonalBest_City</title>
<ellipse fill="#ffffff" stroke="#000000" cx="55.923" cy="-72" rx="27" ry="18"/>
<text text-anchor="middle" x="55.923" y="-69.5" font-family="Courier,monospace" font-size="10.00" fill="#000000">City</text>
</g>
<!-- ATHLETE_PersonalBest_City&#45;&#45;ATHLETE_PersonalBest -->
<g id="edge12" class="edge">
<title>ATHLETE_PersonalBest_City&#45;&#45;ATHLETE_PersonalBest</title>
<path fill="none" stroke="#000000" d="M78.1704,-82.2456C88.5062,-87.1315 100.9027,-93.172 111.846,-99 132.8359,-110.1785 155.9336,-123.6785 173.7839,-134.3839"/>
</g>
<!-- ATHLETE_PersonalBest_Competition -->
<g id="node14" class="node">
<title>ATHLETE_PersonalBest_Competition</title>
<ellipse fill="#ffffff" stroke="#000000" cx="55.923" cy="-18" rx="48.7185" ry="18"/>
<text text-anchor="middle" x="55.923" y="-15.5" font-family="Courier,monospace" font-size="10.00" fill="#000000">Competition</text>
</g>
<!-- ATHLETE_PersonalBest_Competition&#45;&#45;ATHLETE_PersonalBest -->
<g id="edge13" class="edge">
<title>ATHLETE_PersonalBest_Competition&#45;&#45;ATHLETE_PersonalBest</title>
<path fill="none" stroke="#000000" d="M89.1876,-31.2736C96.9903,-35.1253 105.0137,-39.736 111.846,-45 144.2928,-69.9989 173.5079,-107.9882 190.0394,-131.6097"/>
</g>
<!-- EMPLOYEE -->
<g id="node15" class="node">
<title>EMPLOYEE</title>
<polygon fill="#ffffff" stroke="#000000" points="236.737,-553 171.737,-553 171.737,-517 236.737,-517 236.737,-553"/>
<text text-anchor="middle" x="204.237" y="-532.5" font-family="Courier,monospace" font-size="10.00" fill="#000000">EMPLOYEE</text>
</g>
<!-- EMPLOYEE__Num_ -->
<g id="node16" class="node">
<title>EMPLOYEE__Num_</title>
<ellipse fill="#ffffff" stroke="#000000" cx="55.923" cy="-670" rx="27.8353" ry="18"/>
<text text-anchor="middle" x="55.923" y="-667.5" font-family="Courier,monospace" font-size="10.00" fill="#000000">_Num_</text>
</g>
<!-- EMPLOYEE__Num_&#45;&#45;EMPLOYEE -->
<g id="edge14" class="edge">
<title>EMPLOYEE__Num_&#45;&#45;EMPLOYEE</title>
<path fill="none" stroke="#000000" d="M80.0205,-660.9773C90.3811,-656.4588 102.2807,-650.3696 111.846,-643 145.8565,-616.7963 176.3163,-576.32 192.3401,-553.0783"/>
</g>
<!-- EMPLOYEE_Name -->
<g id="node17" class="node">
<title>EMPLOYEE_Name</title>
<ellipse fill="#ffffff" stroke="#000000" cx="55.923" cy="-616" rx="27" ry="18"/>
<text text-anchor="middle" x="55.923" y="-613.5" font-family="Courier,monospace" font-size="10.00" fill="#000000">Name</text>
</g>
<!-- EMPLOYEE_Name&#45;&#45;EMPLOYEE -->
<g id="edge15" class="edge">
<title>EMPLOYEE_Name&#45;&#45;EMPLOYEE</title>
<path fill="none" stroke="#000000" d="M78.1704,-605.7544C88.5062,-600.8685 100.9027,-594.828 111.846,-589 133.1638,-577.6468 156.6559,-563.899 174.6167,-553.1163"/>
</g>
<!-- EMPLOYEE_Sex -->
<g id="node18" class="node">
<title>EMPLOYEE_Sex</title>
<ellipse fill="#ffffff" stroke="#000000" cx="55.923" cy="-562" rx="27" ry="18"/>
<text text-anchor="middle" x="55.923" y="-559.5" font-family="Courier,monospace" font-size="10.00" fill="#000000">Sex</text>
</g>
<!-- EMPLOYEE_Sex&#45;&#45;EMPLOYEE -->
<g id="edge16" class="edge">
<title>EMPLOYEE_Sex&#45;&#45;EMPLOYEE</title>
<path fill="none" stroke="#000000" d="M82.0971,-557.2351C107.0452,-552.6934 144.6906,-545.8402 171.5885,-540.9435"/>
</g>
<!-- EMPLOYEE_BirthDate -->
<g id="node19" class="node">
<title>EMPLOYEE_BirthDate</title>
<ellipse fill="#ffffff" stroke="#000000" cx="55.923" cy="-508" rx="41.5911" ry="18"/>
<text text-anchor="middle" x="55.923" y="-505.5" font-family="Courier,monospace" font-size="10.00" fill="#000000">BirthDate</text>
</g>
<!-- EMPLOYEE_BirthDate&#45;&#45;EMPLOYEE -->
<g id="edge17" class="edge">
<title>EMPLOYEE_BirthDate&#45;&#45;EMPLOYEE</title>
<path fill="none" stroke="#000000" d="M94.5036,-515.0234C118.3642,-519.3672 148.6647,-524.8833 171.3774,-529.018"/>
</g>
<!-- EMPLOYEE_Phone -->
<g id="node20" class="node">
<title>EMPLOYEE_Phone</title>
<ellipse fill="#ffffff" stroke="#000000" cx="55.923" cy="-454" rx="34.9638" ry="18"/>
<text text-anchor="middle" x="55.923" y="-451.5" font-family="Courier,monospace" font-size="10.00" fill="#000000">Phone ?</text>
</g>
<!-- EMPLOYEE_Phone&#45;&#45;EMPLOYEE -->
<g id="edge18" class="edge">
<title>EMPLOYEE_Phone&#45;&#45;EMPLOYEE</title>
<path fill="none" stroke="#000000" d="M82.6528,-465.6157C92.088,-470.0498 102.6359,-475.3956 111.846,-481 128.9314,-491.3966 130.7436,-497.6313 147.846,-508 155.2714,-512.5019 163.5629,-516.8268 171.454,-520.6457"/>
</g>
<!-- EMPLOYEE_Email -->
<g id="node21" class="node">
<title>EMPLOYEE_Email</title>
<ellipse fill="#ffffff" stroke="#000000" cx="55.923" cy="-400" rx="27.8353" ry="18"/>
<text text-anchor="middle" x="55.923" y="-397.5" font-family="Courier,monospace" font-size="10.00" fill="#000000">Email</text>
</g>
<!-- EMPLOYEE_Email&#45;&#45;EMPLOYEE -->
<g id="edge19" class="edge">
<title>EMPLOYEE_Email&#45;&#45;EMPLOYEE</title>
<path fill="none" stroke="#000000" d="M81.1242,-407.7864C91.6892,-412.076 103.4435,-418.328 111.846,-427 139.2595,-455.2931 120.3864,-479.7516 147.846,-508 154.4282,-514.7713 163.0494,-520.0586 171.5635,-524.0885"/>
</g>
<!-- TEAM -->
<g id="node22" class="node">
<title>TEAM</title>
<polygon fill="#ffffff" stroke="#000000" points="231.237,-796 177.237,-796 177.237,-760 231.237,-760 231.237,-796"/>
<text text-anchor="middle" x="204.237" y="-775.5" font-family="Courier,monospace" font-size="10.00" fill="#000000">TEAM</text>
</g>
<!-- TEAM__Num_ -->
<g id="node23" class="node">
<title>TEAM__Num_</title>
<ellipse fill="#ffffff" stroke="#000000" cx="55.923" cy="-832" rx="27.8353" ry="18"/>
<text text-anchor="middle" x="55.923" y="-829.5" font-family="Courier,monospace" font-size="10.00" fill="#000000">_Num_</text>
</g>
<!-- TEAM__Num_&#45;&#45;TEAM -->
<g id="edge20" class="edge">
<title>TEAM__Num_&#45;&#45;TEAM</title>
<path fill="none" stroke="#000000" d="M80.0823,-823.2038C106.6772,-813.5208 149.3309,-797.9909 177.069,-787.8917"/>
</g>
<!-- TEAM_Name -->
<g id="node24" class="node">
<title>TEAM_Name</title>
<ellipse fill="#ffffff" stroke="#000000" cx="55.923" cy="-778" rx="27" ry="18"/>
<text text-anchor="middle" x="55.923" y="-775.5" font-family="Courier,monospace" font-size="10.00" fill="#000000">Name</text>
</g>
<!-- TEAM_Name&#45;&#45;TEAM -->
<g id="edge21" class="edge">
<title>TEAM_Name&#45;&#45;TEAM</title>
<path fill="none" stroke="#000000" d="M83.1261,-778C109.8867,-778 150.5055,-778 177.2063,-778"/>
</g>
<!-- TEAM_Email -->
<g id="node25" class="node">
<title>TEAM_Email</title>
<ellipse fill="#ffffff" stroke="#000000" cx="55.923" cy="-724" rx="27.8353" ry="18"/>
<text text-anchor="middle" x="55.923" y="-721.5" font-family="Courier,monospace" font-size="10.00" fill="#000000">Email</text>
</g>
<!-- TEAM_Email&#45;&#45;TEAM -->
<g id="edge22" class="edge">
<title>TEAM_Email&#45;&#45;TEAM</title>
<path fill="none" stroke="#000000" d="M80.0823,-732.7962C106.6772,-742.4792 149.3309,-758.0091 177.069,-768.1083"/>
</g>
<!-- POOL -->
<g id="node26" class="node">
<title>POOL</title>
<polygon fill="#ffffff" stroke="#000000" points="231.237,-1039 177.237,-1039 177.237,-1003 231.237,-1003 231.237,-1039"/>
<text text-anchor="middle" x="204.237" y="-1018.5" font-family="Courier,monospace" font-size="10.00" fill="#000000">POOL</text>
</g>
<!-- POOL__Num_ -->
<g id="node27" class="node">
<title>POOL__Num_</title>
<ellipse fill="#ffffff" stroke="#000000" cx="55.923" cy="-1156" rx="27.8353" ry="18"/>
<text text-anchor="middle" x="55.923" y="-1153.5" font-family="Courier,monospace" font-size="10.00" fill="#000000">_Num_</text>
</g>
<!-- POOL__Num_&#45;&#45;POOL -->
<g id="edge23" class="edge">
<title>POOL__Num_&#45;&#45;POOL</title>
<path fill="none" stroke="#000000" d="M80.0205,-1146.9773C90.3811,-1142.4588 102.2807,-1136.3696 111.846,-1129 145.8565,-1102.7963 176.3163,-1062.32 192.3401,-1039.0783"/>
</g>
<!-- POOL_Name -->
<g id="node28" class="node">
<title>POOL_Name</title>
<ellipse fill="#ffffff" stroke="#000000" cx="55.923" cy="-1102" rx="27" ry="18"/>
<text text-anchor="middle" x="55.923" y="-1099.5" font-family="Courier,monospace" font-size="10.00" fill="#000000">Name</text>
</g>
<!-- POOL_Name&#45;&#45;POOL -->
<g id="edge24" class="edge">
<title>POOL_Name&#45;&#45;POOL</title>
<path fill="none" stroke="#000000" d="M78.1704,-1091.7544C88.5062,-1086.8685 100.9027,-1080.828 111.846,-1075 134.1477,-1063.1228 158.8291,-1048.6249 177.0675,-1037.6428"/>
</g>
<!-- POOL_AddStreet -->
<g id="node29" class="node">
<title>POOL_AddStreet</title>
<ellipse fill="#ffffff" stroke="#000000" cx="55.923" cy="-1048" rx="41.5911" ry="18"/>
<text text-anchor="middle" x="55.923" y="-1045.5" font-family="Courier,monospace" font-size="10.00" fill="#000000">AddStreet</text>
</g>
<!-- POOL_AddStreet&#45;&#45;POOL -->
<g id="edge25" class="edge">
<title>POOL_AddStreet&#45;&#45;POOL</title>
<path fill="none" stroke="#000000" d="M94.5036,-1040.9766C120.4241,-1036.2578 153.9445,-1030.1556 177.0811,-1025.9436"/>
</g>
<!-- POOL_AddNum -->
<g id="node30" class="node">
<title>POOL_AddNum</title>
<ellipse fill="#ffffff" stroke="#000000" cx="55.923" cy="-994" rx="31.3996" ry="18"/>
<text text-anchor="middle" x="55.923" y="-991.5" font-family="Courier,monospace" font-size="10.00" fill="#000000">AddNum</text>
</g>
<!-- POOL_AddNum&#45;&#45;POOL -->
<g id="edge26" class="edge">
<title>POOL_AddNum&#45;&#45;POOL</title>
<path fill="none" stroke="#000000" d="M85.9365,-999.4639C112.5148,-1004.3023 150.9876,-1011.3062 176.7691,-1015.9996"/>
</g>
<!-- POOL_AddPostalCode -->
<g id="node31" class="node">
<title>POOL_AddPostalCode</title>
<ellipse fill="#ffffff" stroke="#000000" cx="55.923" cy="-940" rx="55.8461" ry="18"/>
<text text-anchor="middle" x="55.923" y="-937.5" font-family="Courier,monospace" font-size="10.00" fill="#000000">AddPostalCode</text>
</g>
<!-- POOL_AddPostalCode&#45;&#45;POOL -->
<g id="edge27" class="edge">
<title>POOL_AddPostalCode&#45;&#45;POOL</title>
<path fill="none" stroke="#000000" d="M87.7874,-954.8466C95.7093,-958.6847 104.1381,-962.8951 111.846,-967 134.1477,-978.8772 158.8291,-993.3751 177.0675,-1004.3572"/>
</g>
<!-- POOL_AddTown -->
<g id="node32" class="node">
<title>POOL_AddTown</title>
<ellipse fill="#ffffff" stroke="#000000" cx="55.923" cy="-886" rx="34.9638" ry="18"/>
<text text-anchor="middle" x="55.923" y="-883.5" font-family="Courier,monospace" font-size="10.00" fill="#000000">AddTown</text>
</g>
<!-- POOL_AddTown&#45;&#45;POOL -->
<g id="edge28" class="edge">
<title>POOL_AddTown&#45;&#45;POOL</title>
<path fill="none" stroke="#000000" d="M83.9703,-896.7902C93.3195,-901.0835 103.4764,-906.5516 111.846,-913 145.8565,-939.2037 176.3163,-979.68 192.3401,-1002.9217"/>
</g>
<!-- COMPETITION -->
<g id="node33" class="node">
<title>COMPETITION</title>
<polygon fill="#ffffff" stroke="#000000" points="245.737,-1255 162.737,-1255 162.737,-1219 245.737,-1219 245.737,-1255"/>
<text text-anchor="middle" x="204.237" y="-1234.5" font-family="Courier,monospace" font-size="10.00" fill="#000000">COMPETITION</text>
</g>
<!-- COMPETITION__Num_ -->
<g id="node34" class="node">
<title>COMPETITION__Num_</title>
<ellipse fill="#ffffff" stroke="#000000" cx="55.923" cy="-1264" rx="27.8353" ry="18"/>
<text text-anchor="middle" x="55.923" y="-1261.5" font-family="Courier,monospace" font-size="10.00" fill="#000000">_Num_</text>
</g>
<!-- COMPETITION__Num_&#45;&#45;COMPETITION -->
<g id="edge29" class="edge">
<title>COMPETITION__Num_&#45;&#45;COMPETITION</title>
<path fill="none" stroke="#000000" d="M82.7815,-1259.1105C105.0698,-1255.053 137.1414,-1249.2145 162.7314,-1244.5559"/>
</g>
<!-- COMPETITION_Name -->
<g id="node35" class="node">
<title>COMPETITION_Name</title>
<ellipse fill="#ffffff" stroke="#000000" cx="55.923" cy="-1210" rx="27" ry="18"/>
<text text-anchor="middle" x="55.923" y="-1207.5" font-family="Courier,monospace" font-size="10.00" fill="#000000">Name</text>
</g>
<!-- COMPETITION_Name&#45;&#45;COMPETITION -->
<g id="edge30" class="edge">
<title>COMPETITION_Name&#45;&#45;COMPETITION</title>
<path fill="none" stroke="#000000" d="M82.0971,-1214.7649C104.3841,-1218.8222 136.8041,-1224.7241 162.6428,-1229.4279"/>
</g>
</g>
</svg>
